<?xml version="1.0" encoding="UTF-8" standalone="no"?>
<!-- Created with Inkscape (http://www.inkscape.org/) -->
<svg
   xmlns:dc="http://purl.org/dc/elements/1.1/"
   xmlns:cc="http://creativecommons.org/ns#"
   xmlns:rdf="http://www.w3.org/1999/02/22-rdf-syntax-ns#"
   xmlns:svg="http://www.w3.org/2000/svg"
   xmlns="http://www.w3.org/2000/svg"
   xmlns:sodipodi="http://sodipodi.sourceforge.net/DTD/sodipodi-0.dtd"
   xmlns:inkscape="http://www.inkscape.org/namespaces/inkscape"
   width="343"
   height="85"
   id="svg2"
   sodipodi:version="0.32"
   inkscape:version="0.46"
   version="1.0"
   sodipodi:docname="logo.svg"
   inkscape:output_extension="org.inkscape.output.svg.inkscape">
  <defs
     id="defs4">
    <inkscape:perspective
       sodipodi:type="inkscape:persp3d"
       inkscape:vp_x="0 : 495 : 1"
       inkscape:vp_y="0 : 1000 : 0"
       inkscape:vp_z="765 : 495 : 1"
       inkscape:persp3d-origin="382.5 : 330 : 1"
       id="perspective11" />
    <inkscape:perspective
       id="perspective2456"
       inkscape:persp3d-origin="100 : 66.666667 : 1"
       inkscape:vp_z="200 : 100 : 1"
       inkscape:vp_y="0 : 1000 : 0"
       inkscape:vp_x="0 : 100 : 1"
       sodipodi:type="inkscape:persp3d" />
    <inkscape:perspective
       id="perspective2514"
       inkscape:persp3d-origin="372.04724 : 350.78739 : 1"
       inkscape:vp_z="744.09448 : 526.18109 : 1"
       inkscape:vp_y="0 : 1000 : 0"
       inkscape:vp_x="0 : 526.18109 : 1"
       sodipodi:type="inkscape:persp3d" />
  </defs>
  <sodipodi:namedview
     inkscape:document-units="in"
     pagecolor="#ffffff"
     bordercolor="#666666"
     borderopacity="1.0"
     inkscape:pageopacity="0.0"
     inkscape:pageshadow="2"
     inkscape:zoom="2.6997085"
     inkscape:cx="171.5"
     inkscape:cy="42.5"
     inkscape:current-layer="layer1"
     id="namedview6"
     showgrid="false"
     inkscape:window-width="1022"
     inkscape:window-height="745"
     inkscape:window-x="0"
     inkscape:window-y="-17" />
  <metadata
     id="metadata8">
    <rdf:RDF>
      <cc:Work
         rdf:about="">
        <dc:format>image/svg+xml</dc:format>
        <dc:type
           rdf:resource="http://purl.org/dc/dcmitype/StillImage" />
      </cc:Work>
    </rdf:RDF>
  </metadata>
  <g
     inkscape:label="Layer 1"
     inkscape:groupmode="layer"
     id="layer1"
     transform="translate(-50.000004,-73.33332)">
    <g
       id="g2387"
       transform="matrix(0.5365886,0,0,0.5365886,17.937823,35.82463)">
      <path
         transform="matrix(0.8326217,0,0,0.8326217,17.150517,28.939396)"
         d="M 110.0912,92.488266 A 28.865374,28.865374 0 1 1 52.360449,92.488266 A 28.865374,28.865374 0 1 1 110.0912,92.488266 z"
         sodipodi:ry="28.865374"
         sodipodi:rx="28.865374"
         sodipodi:cy="92.488266"
         sodipodi:cx="81.225822"
         id="path2468"
         style="fill:#f69143;fill-opacity:1;stroke:none;stroke-width:2;stroke-linecap:round;stroke-linejoin:round;stroke-miterlimit:4;stroke-dasharray:none;stroke-opacity:0.83185838"
         sodipodi:type="arc" />
      <path
         style="fill:#000000"
         d="M 173.78063,271.10345 C 209.09977,261.71118 235.23572,237.4489 246.09486,203.97333 C 251.32084,187.86319 251.29926,164.32234 246.04444,148.97167 C 234.27169,114.58053 210.13062,92.055083 175.38253,83.038703 C 168.10972,81.151583 159.44268,78.179943 156.12248,76.435113 C 150.01353,73.224713 143.6176,72.507683 136.88286,74.278143 L 133.18914,75.249193 L 136.88286,78.272143 C 141.4585,82.016833 139.4269,82.339933 133.84769,78.754843 C 129.90323,76.220233 129.55204,76.290283 125.68436,80.383003 C 123.46153,82.735203 120.46786,84.659713 119.03181,84.659713 C 117.59574,84.659713 111.26578,87.205613 104.96524,90.317263 C 97.411823,94.047653 93.287773,95.321933 92.858223,94.058153 C 91.956273,91.404553 76.658823,104.17913 76.658823,107.5859 C 76.658823,109.07028 73.768103,113.86065 70.234993,118.23115 C 56.210293,135.57997 50.260773,153.26937 50.008223,178.37054 C 49.819973,197.07858 52.833633,208.56876 62.267803,225.11303 C 74.120573,245.8986 100.12044,264.77723 125.56853,271.07604 C 137.68113,274.0741 162.55647,274.08825 173.78063,271.10345 z M 129.28294,265.99302 C 86.849823,256.59063 55.076223,219.19865 55.076223,178.66476 C 55.076223,159.49805 63.388723,134.96788 74.123273,122.45687 C 78.386743,117.4878 78.480293,117.4647 83.344863,120.17908 C 88.724793,123.18105 89.914973,126.99162 85.472623,126.99162 C 83.010873,126.99162 83.062013,127.30887 85.887673,129.56677 C 89.066213,132.10665 89.064913,132.12888 85.789943,131.19093 C 82.469563,130.23993 82.469563,130.23993 85.789943,132.6198 C 91.847223,136.96125 103.22206,151.8526 103.22206,155.4411 C 103.22206,161.52935 120.15261,164.36829 133.59918,160.53474 C 144.36086,157.46662 145.65826,156.0821 143.38245,150.09449 C 142.46695,147.68597 141.15956,144.25002 140.47706,142.45907 C 139.7946,140.66809 139.41181,137.84052 139.62645,136.17554 C 139.86081,134.35747 139.29958,133.58292 138.2214,134.23643 C 137.23398,134.8349 136.4261,136.65697 136.4261,138.28544 C 136.4261,143.33179 132.09739,145.43154 123.95143,144.33655 C 117.95958,143.53115 116.50366,143.817 116.50366,145.79897 C 116.50366,147.15394 118.18463,148.92514 120.23913,149.735 C 122.76698,150.73145 123.10104,151.24085 121.27251,151.31067 C 118.25313,151.42599 114.76231,147.9504 114.21336,144.28222 C 114.01506,142.95725 110.42548,138.51197 106.23649,134.40387 C 97.167413,125.50985 94.049913,119.0379 95.818913,112.77692 C 96.519623,110.29697 96.937143,106.71528 96.746743,104.81765 C 96.507973,102.438 98.102843,100.38988 101.88657,98.217063 C 110.77066,93.115283 121.48428,89.354663 121.48428,91.337913 C 121.48428,92.309983 119.92301,93.505713 118.01479,93.995103 C 115.22774,94.709863 114.75246,95.720683 115.59843,99.134163 C 116.17766,101.47126 116.94479,105.21511 117.30323,107.45383 C 117.66164,109.69253 118.31829,112.98953 118.76248,114.7805 C 119.20664,116.57148 119.62719,118.95262 119.69704,120.07198 C 119.76691,121.19135 121.63448,122.10718 123.84721,122.10718 C 126.05994,122.10718 130.08999,123.93885 132.80291,126.17757 C 140.03466,132.14518 146.14875,131.49372 155.72228,123.73532 C 161.41023,119.12578 165.31627,117.22273 169.08932,117.22273 C 173.67008,117.22273 174.3222,116.72432 173.72438,113.68003 C 173.34175,111.73157 173.82252,109.1993 174.79273,108.05282 C 175.79328,106.87052 175.95877,105.0566 175.17507,103.86183 C 174.4151,102.70321 173.79047,99.557283 173.78698,96.870853 C 173.782,93.047413 172.9692,91.873363 170.04517,91.466113 C 167.99067,91.179963 166.30972,89.916133 166.30972,88.657563 C 166.30972,85.253463 174.70972,87.241713 190.38264,94.355453 C 213.16507,104.69618 231.49049,124.56218 239.61264,147.72414 C 245.16241,163.55044 244.96254,189.71329 239.16776,205.96053 C 228.64111,235.47491 204.28094,257.21272 172.61565,265.34835 C 157.54078,269.2215 144.7142,269.41234 129.28294,265.99302 z M 168.80002,263.70155 C 211.16362,253.66923 239.85439,220.9445 239.64068,182.90052 C 239.52221,161.80922 234.27901,147.7209 221.08954,133.05412 C 212.44655,123.44312 203.11892,117.0942 191.21274,112.71837 C 186.19062,110.8726 180.7298,108.83787 179.07753,108.19678 C 176.4459,107.17563 176.13715,107.81432 176.58725,113.34803 L 177.10103,119.66497 L 170.07908,120.16398 C 164.90862,120.53143 161.74487,121.94995 158.08016,125.5439 C 153.11716,130.4111 148.06963,143.33887 148.02303,151.30235 C 147.97766,159.05522 144.32678,162.90587 132.27558,167.91149 L 120.65419,172.73856 L 111.27224,170.00796 C 94.355843,165.08447 81.026843,169.61734 70.909803,183.73421 C 66.426373,189.99021 65.868753,192.06278 65.878743,202.43386 C 65.888203,212.28404 66.650343,215.44696 70.779953,222.7749 C 76.169203,232.33796 91.076213,246.75595 102.16146,253.12692 C 115.18164,260.60995 127.84446,263.97043 145.5572,264.64342 C 154.68831,264.99033 165.14758,264.56648 168.80002,263.70155 z M 131.37616,258.19555 C 100.49126,252.79148 73.455053,229.29196 70.562053,205.33669 C 68.491403,188.19076 81.725173,173.51022 99.252043,173.51022 C 111.35844,173.51022 113.23716,175.79566 105.74041,181.40331 C 102.47574,183.84532 98.519043,187.16417 96.947793,188.77849 C 95.376523,190.39281 92.490663,192.19511 90.534743,192.78364 C 88.578823,193.37214 86.578843,195.35261 86.090323,197.18464 C 85.471893,199.50384 85.868913,200.26471 87.397373,199.68949 C 89.042473,199.07041 89.418123,200.36423 88.896363,204.85238 C 88.355173,209.50759 89.131563,211.92919 92.382423,215.72585 C 95.458713,219.31855 96.566943,219.8822 96.572993,217.85711 C 96.577543,216.34288 95.834163,214.65113 94.921043,214.09771 C 92.134813,212.40896 93.063313,210.28259 96.826743,209.73351 C 100.80756,209.15269 104.63229,204.35501 102.65801,202.41884 C 101.95584,201.73021 100.71546,202.22336 99.901663,203.51473 C 99.087843,204.80608 97.949093,205.39888 97.371113,204.83206 C 96.793123,204.26524 98.620223,202.13379 101.43134,200.09559 C 104.24246,198.05738 106.54246,195.06219 106.54246,193.43963 C 106.54246,191.57494 107.76412,190.48951 109.86286,190.48951 C 111.68908,190.48951 113.23578,189.57368 113.29996,188.45434 C 113.36413,187.33497 114.05871,187.88446 114.84346,189.67544 C 116.06356,192.45991 116.28719,192.51889 116.38699,190.08246 C 116.45116,188.51538 117.33069,187.23321 118.34149,187.23321 C 119.35231,187.23321 119.73441,188.37026 119.19061,189.75999 C 118.62366,191.20893 118.90198,191.86246 119.84308,191.29206 C 120.74574,190.74498 121.48428,189.24158 121.48428,187.95119 C 121.48428,186.66082 122.23136,185.60506 123.14448,185.60506 C 125.26504,185.60506 125.23593,186.65707 123.00198,190.75061 C 121.40809,193.67136 121.60038,193.92911 124.66218,192.97608 C 127.78819,192.00309 128.12508,192.54761 128.12508,198.57284 C 128.12508,212.59008 120.38859,222.03753 107.33819,223.95675 C 93.165773,226.04101 79.979223,215.06975 79.979223,201.19398 C 79.979223,192.71164 83.503763,187.74299 92.217573,183.94109 C 97.575543,181.60334 98.238213,180.92552 95.253663,180.83564 C 82.617043,180.45496 73.304543,194.65936 76.649073,209.21323 C 78.650203,217.92133 88.693163,227.16903 97.784923,228.67541 C 119.73599,232.31243 137.89823,213.32386 133.16606,191.68454 C 131.74831,185.20137 131.81548,183.11587 133.47618,182.05549 C 138.26961,178.99484 141.89511,181.47514 144.6142,189.67544 C 147.84471,199.41804 156.36428,212.31076 168.0376,225.1222 C 180.14447,238.40948 177.13012,242.69838 159.83566,236.79223 C 152.57236,234.31176 143.0669,234.90301 143.0669,237.83525 C 143.0669,238.65958 145.72583,239.33403 148.97558,239.33403 C 152.49196,239.33403 154.46883,239.99323 153.85821,240.96218 C 153.29386,241.85767 150.28676,242.59033 147.17575,242.59033 C 141.15378,242.59033 129.78529,247.11662 129.78529,249.51422 C 129.78529,251.26928 136.06331,249.47403 140.53095,246.4414 C 142.3321,245.21882 144.9469,244.23098 146.34166,244.24625 C 147.73643,244.26153 145.14215,246.44705 140.57661,249.10295 C 136.01105,251.75883 133.39623,253.91838 134.76588,253.90193 C 136.13555,253.88547 139.12391,252.82493 141.4067,251.54515 C 143.68946,250.2654 146.67785,249.22548 148.0475,249.2342 C 149.41716,249.24295 147.1759,251.01553 143.0669,253.17332 C 138.1439,255.75855 136.7284,257.10195 138.9164,257.11242 C 140.74261,257.12115 144.10453,256.08122 146.3873,254.80147 C 148.67008,253.5217 154.37845,252.44865 159.07256,252.41693 C 163.91057,252.38423 170.74205,250.96428 174.84448,249.13868 C 178.82492,247.3674 183.83253,245.90207 185.9725,245.88238 C 188.44835,245.85965 190.17917,244.66238 190.73169,242.59033 C 191.20925,240.79937 192.44672,239.32281 193.48162,239.3091 C 194.5165,239.2954 194.2426,238.57395 192.87294,237.70588 C 190.65934,236.30296 190.65934,236.12416 192.87294,236.09656 C 194.2426,236.07953 193.06242,234.68961 190.25034,233.0079 C 184.74512,229.71565 183.00802,226.32538 178.56997,210.21171 C 175.22303,198.05959 166.60343,187.86066 158.30436,186.23291 C 155.43206,185.66952 153.48753,184.56511 153.98313,183.77867 C 155.18518,181.87129 159.3269,181.96316 161.81425,183.95239 C 162.91708,184.83434 166.11288,187.35277 168.916,189.54884 C 174.43835,193.87526 177.93653,200.74071 182.01505,215.25693 C 185.09867,226.23215 192.37759,232.856 201.88257,233.3364 C 205.13707,233.50091 207.8032,234.16126 207.8073,234.80386 C 207.81827,236.52451 191.42619,248.22615 183.74183,251.98322 C 177.99058,254.79517 173.22007,256.0625 155.51841,259.48102 C 149.31953,260.67813 143.92193,260.39073 131.37616,258.19555 z M 184.10812,240.89762 C 184.59513,239.07111 185.36458,237.94051 185.81797,238.38516 C 186.71614,239.26598 185.12967,244.21847 183.94937,244.21847 C 183.54963,244.21847 183.62107,242.72408 184.10812,240.89762 z M 215.33959,232.25908 C 215.97374,226.59366 219.66897,221.64395 223.07644,221.89568 C 226.91784,222.17945 226.91761,222.18061 221.51141,229.67726 C 216.23989,236.98715 214.74012,237.61455 215.33959,232.25908 z M 153.02811,204.23269 C 153.02811,203.83781 153.77521,203.51473 154.68831,203.51473 C 155.60141,203.51473 156.34851,204.29063 156.34851,205.23896 C 156.34851,206.18729 155.60141,206.51039 154.68831,205.95694 C 153.77521,205.40353 153.02811,204.62759 153.02811,204.23269 z M 204.58962,173.40114 C 201.59394,166.03431 194.96765,158.23047 189.24304,155.3273 C 184.49113,152.91747 183.66638,152.94674 177.72653,155.73605 C 174.20757,157.38854 171.31987,159.10815 171.30937,159.55744 C 171.2989,160.00672 174.54798,162.06914 178.52957,164.14057 C 187.59314,168.85597 196.78319,177.98336 200.98255,186.44046 C 202.75532,190.01069 203.9296,193.20518 203.59207,193.53941 C 203.25455,193.87361 199.44897,191.10034 195.13524,187.37652 C 190.82152,183.65274 182.733,178.47217 177.16078,175.86412 C 169.97858,172.50256 166.95542,170.15884 166.7752,167.81272 C 166.63542,165.99247 167.2233,164.07756 168.08165,163.55731 C 168.94002,163.03706 169.18545,160.82624 168.62707,158.64445 C 168.06868,156.4626 168.049,153.56025 168.5833,152.19474 C 169.38237,150.15257 170.13422,150.06687 172.81998,151.71179 C 175.53515,153.37469 176.66018,153.20125 179.49847,150.68224 C 181.37577,149.01609 182.91173,145.93479 182.91173,143.83485 C 182.91173,141.73497 183.7182,140.01684 184.70383,140.01684 C 185.85602,140.01684 186.08318,141.90632 185.34,145.30834 C 184.70422,148.21865 184.76113,150.0584 185.46645,149.39667 C 186.17177,148.73497 187.35679,145.43797 188.09977,142.06999 C 189.28607,136.69269 189.3571,136.93854 188.68275,144.0872 C 188.14877,149.74774 188.40944,151.4839 189.53834,149.78574 C 190.43129,148.4425 191.19605,144.77917 191.2378,141.64499 C 191.3008,136.91517 191.60632,136.43949 193.03502,138.84672 C 194.24147,140.87949 194.17874,143.46332 192.8252,147.48532 C 190.98625,152.94985 191.1656,153.48229 196.5836,158.64257 C 204.75254,166.42302 208.39735,174.91801 208.85057,187.23321 L 209.24004,197.81619 L 207.90647,188.04727 C 207.17304,182.67439 205.68044,176.08362 204.58962,173.40114 z M 161.40522,172.44041 C 162.42443,170.57277 163.66367,169.44216 164.15903,169.92797 C 165.52747,171.26999 163.33548,175.83616 161.3228,175.83616 C 160.09498,175.83616 160.12025,174.79502 161.40522,172.44041 z M 224.67962,143.42737 C 216.22249,130.6278 205.47174,122.92648 187.23965,116.60728 C 181.26125,114.53518 186.03303,113.64932 192.34665,115.65922 C 201.44282,118.5549 214.68137,127.52552 220.41249,134.677 C 225.90482,141.53052 231.05757,149.21024 231.05757,150.54252 C 231.05757,152.53374 229.68404,151.00142 224.67962,143.42737 z M 136.14176,125.9252 C 134.47191,124.44318 133.10568,121.12805 133.10568,118.55823 C 133.10568,115.07247 132.05161,113.49282 128.95518,112.33828 C 124.63299,110.7267 124.27486,109.83067 124.72528,101.75528 C 125.01873,96.494553 130.03129,91.172313 134.69251,91.172313 C 136.27605,91.172313 138.92425,92.638053 140.57743,94.429503 L 143.58313,97.686663 L 145.90946,94.429503 C 148.55053,90.731653 155.98323,90.086133 159.9801,93.207503 C 163.38212,95.864353 164.97278,106.44757 162.44672,109.61858 C 161.37547,110.96332 159.00483,112.32215 157.17861,112.63818 C 154.73078,113.06178 153.9852,114.28192 154.34146,117.28118 C 155.39223,126.12758 143.00098,132.01288 136.14176,125.9252 z M 156.28816,105.08293 C 158.7528,102.17055 157.19043,99.313083 153.13341,99.313083 C 149.47458,99.313083 145.69023,103.40238 147.17246,105.75435 C 148.72738,108.22172 153.95793,107.83645 156.28816,105.08293 z M 140.42543,106.06555 C 140.90663,105.30198 140.3335,103.38053 139.15176,101.79563 C 136.71625,98.529163 129.78529,99.656403 129.78529,103.319 C 129.78529,106.7952 138.54123,109.05538 140.42543,106.06555 z M 145.56226,100.9332 C 147.53956,97.795613 153.64146,96.330433 157.17861,98.143883 C 160.14871,99.666603 160.25863,99.560413 158.22048,97.137413 C 155.18655,93.530603 150.88201,93.713763 147.2936,97.602353 C 144.39251,100.74611 144.32125,100.74445 139.74223,97.424403 C 136.11633,94.795403 134.45501,94.451433 132.03738,95.829303 C 129.32023,97.377863 129.52958,97.591783 133.80506,97.635403 C 136.4725,97.662633 139.94701,98.831663 141.5262,100.2332 C 143.5657,102.0433 144.73488,102.24605 145.56226,100.9332 z M 89.940443,107.5499 C 89.940443,106.70728 90.687523,105.56507 91.600663,105.0116 C 92.513763,104.45816 93.260863,105.14758 93.260863,106.54367 C 93.260863,107.93973 92.513763,109.08197 91.600663,109.08197 C 90.687523,109.08197 89.940443,108.39253 89.940443,107.5499 z M 118.82103,98.125883 C 120.50866,96.470853 121.90111,98.962553 120.51646,101.15975 C 119.47048,102.81951 119.07943,102.8208 118.51709,101.16631 C 118.13259,100.03508 118.26938,98.666883 118.82103,98.125883 z M 167.96992,97.684933 C 167.96992,96.789433 168.71702,96.056763 169.63012,96.056763 C 170.54323,96.056763 171.29033,96.789433 171.29033,97.684933 C 171.29033,98.580403 170.54323,99.313083 169.63012,99.313083 C 168.71702,99.313083 167.96992,98.580403 167.96992,97.684933 z M 144.7271,76.326783 C 144.7271,75.431293 145.47418,75.151433 146.3873,75.704883 C 147.30041,76.258313 148.0475,77.443813 148.0475,78.339283 C 148.0475,79.234763 147.30041,79.514633 146.3873,78.961193 C 145.47418,78.407743 144.7271,77.222263 144.7271,76.326783 z M 139.53473,76.925983 C 137.46965,74.343643 137.52836,74.286063 140.16155,76.311263 C 141.7595,77.540293 143.0669,78.822463 143.0669,79.160563 C 143.0669,80.500583 141.70355,79.638083 139.53473,76.925983 z"
         id="path1308" />
      <text
         sodipodi:linespacing="125%"
         id="text2460"
         y="177.11876"
         x="267.17868"
         style="font-size:65.59667206px;font-style:normal;font-variant:normal;font-weight:normal;font-stretch:normal;text-align:start;line-height:125%;writing-mode:lr-tb;text-anchor:start;fill:#f69143;fill-opacity:1;stroke:none;stroke-width:1px;stroke-linecap:butt;stroke-linejoin:miter;stroke-opacity:1;font-family:Liberation Sans;-inkscape-font-specification:Liberation Sans"
         xml:space="preserve"><tspan
           y="177.11876"
           x="267.17868"
           id="tspan2462"
           sodipodi:role="line">monkey</tspan></text>
      <text
         sodipodi:linespacing="125%"
         id="text2464"
         y="177.11876"
         x="495.13577"
         style="font-size:65.59667206px;font-style:normal;font-variant:normal;font-weight:normal;font-stretch:normal;text-align:start;line-height:125%;writing-mode:lr-tb;text-anchor:start;fill:#914c37;fill-opacity:1;stroke:none;stroke-width:1px;stroke-linecap:butt;stroke-linejoin:miter;stroke-opacity:1;font-family:Liberation Sans;-inkscape-font-specification:Liberation Sans"
         xml:space="preserve"><tspan
           y="177.11876"
           x="495.13577"
           id="tspan2466"
           sodipodi:role="line">sphere</tspan></text>
    </g>
  </g>
</svg>
