<?xml version="1.0" encoding="UTF-8" standalone="no"?>
<!-- Created with Inkscape (http://www.inkscape.org/) -->
<svg
   xmlns:dc="http://purl.org/dc/elements/1.1/"
   xmlns:cc="http://web.resource.org/cc/"
   xmlns:rdf="http://www.w3.org/1999/02/22-rdf-syntax-ns#"
   xmlns:svg="http://www.w3.org/2000/svg"
   xmlns="http://www.w3.org/2000/svg"
   xmlns:sodipodi="http://inkscape.sourceforge.net/DTD/sodipodi-0.dtd"
   xmlns:inkscape="http://www.inkscape.org/namespaces/inkscape"
   id="svg2"
   sodipodi:version="0.32"
   inkscape:version="0.43"
   width="200"
   height="200"
   sodipodi:docbase="C:\Documents and Settings\clint\My Documents\Working\Chinese Zodiac"
   sodipodi:docname="monkey.svg"
   version="1.0">
  <metadata
     id="metadata7">
    <rdf:RDF>
      <cc:Work
         rdf:about="">
        <dc:format>image/svg+xml</dc:format>
        <dc:type
           rdf:resource="http://purl.org/dc/dcmitype/StillImage" />
      </cc:Work>
    </rdf:RDF>
  </metadata>
  <defs
     id="defs5" />
  <sodipodi:namedview
     inkscape:window-height="540"
     inkscape:window-width="749"
     inkscape:pageshadow="2"
     inkscape:pageopacity="0.0"
     borderopacity="1.0"
     bordercolor="#666666"
     pagecolor="#ffffff"
     id="base"
     inkscape:showpageshadow="false"
     inkscape:zoom="0.71078191"
     inkscape:cx="186.89786"
     inkscape:cy="180.28334"
     inkscape:window-x="66"
     inkscape:window-y="66"
     inkscape:current-layer="svg2" />
  <path
     style="fill:#000000"
     d="M 123.78062,197.77013 C 159.09976,188.37786 185.23571,164.11558 196.09485,130.64001 C 201.32083,114.52987 201.29925,90.989024 196.04443,75.638354 C 184.27168,41.247215 160.13061,18.721762 125.38252,9.7053782 C 118.10971,7.8182612 109.44267,4.8466272 106.12247,3.1017942 C 100.01352,-0.10860683 93.617589,-0.82563983 86.882849,0.94482717 L 83.189129,1.9158772 L 86.882849,4.9388272 C 91.458489,8.6835112 89.426889,9.0066112 83.847679,5.4215272 C 79.903219,2.8869102 79.552029,2.9569602 75.684349,7.0496782 C 73.461519,9.4018782 70.467849,11.326395 69.031799,11.326395 C 67.595729,11.326395 61.265769,13.872295 54.965229,16.983946 C 47.411809,20.714329 43.287759,21.988613 42.858209,20.724829 C 41.956259,18.071229 26.658809,30.845814 26.658809,34.252581 C 26.658809,35.736965 23.768089,40.527332 20.234979,44.897832 C 6.2102795,62.246654 0.26075947,79.936054 0.0082094708,105.03722 C -0.18004053,123.74526 2.8336195,135.23544 12.267789,151.77971 C 24.120559,172.56528 50.120429,191.44391 75.568519,197.74272 C 87.681119,200.74078 112.55646,200.75493 123.78062,197.77013 z M 79.282929,192.6597 C 36.849809,183.25731 5.0762095,145.86533 5.0762095,105.33144 C 5.0762095,86.164734 13.388709,61.634564 24.123259,49.12355 C 28.386729,44.154482 28.480279,44.131382 33.344849,46.845766 C 38.724779,49.847733 39.914959,53.658304 35.472609,53.658304 C 33.010859,53.658304 33.061999,53.975554 35.887659,56.233454 C 39.066199,58.773334 39.064899,58.795564 35.789929,57.857614 C 32.469549,56.906614 32.469549,56.906614 35.789929,59.286484 C 41.847209,63.627934 53.222049,78.519284 53.222049,82.107784 C 53.222049,88.196034 70.152599,91.034974 83.599169,87.201424 C 94.360849,84.133304 95.658249,82.748784 93.382439,76.761174 C 92.466939,74.352654 91.159549,70.916704 90.477049,69.125754 C 89.794589,67.334774 89.411799,64.507204 89.626439,62.842224 C 89.860799,61.024154 89.299569,60.249604 88.221389,60.903114 C 87.233969,61.501584 86.426089,63.323654 86.426089,64.952124 C 86.426089,69.998474 82.097379,72.098224 73.951419,71.003234 C 67.959569,70.197834 66.503649,70.483684 66.503649,72.465654 C 66.503649,73.820624 68.184619,75.591824 70.239119,76.401684 C 72.766969,77.398134 73.101029,77.907534 71.272499,77.977354 C 68.253119,78.092674 64.762299,74.617084 64.213349,70.948904 C 64.015049,69.623934 60.425469,65.178654 56.236479,61.070554 C 47.167399,52.176534 44.049899,45.704583 45.818899,39.443598 C 46.519609,36.963648 46.937129,33.381964 46.746729,31.484331 C 46.507959,29.10468 48.102829,27.056564 51.886559,24.883747 C 60.770649,19.781963 71.484269,16.021345 71.484269,18.004596 C 71.484269,18.976662 69.922999,20.172396 68.014779,20.661779 C 65.227729,21.376546 64.752449,22.387363 65.598419,25.800847 C 66.177649,28.137947 66.944779,31.881797 67.303219,34.120514 C 67.661629,36.359215 68.318279,39.656215 68.762469,41.447182 C 69.206629,43.238166 69.627179,45.619299 69.697029,46.738666 C 69.766899,47.858033 71.634469,48.773866 73.847199,48.773866 C 76.059929,48.773866 80.089979,50.605533 82.802899,52.844254 C 90.034649,58.811864 96.148739,58.160404 105.72227,50.402003 C 111.41022,45.792466 115.31626,43.889416 119.08931,43.889416 C 123.67007,43.889416 124.32219,43.390999 123.72437,40.346715 C 123.34174,38.398248 123.82251,35.865981 124.79272,34.719498 C 125.79327,33.537198 125.95876,31.723281 125.17506,30.528514 C 124.41509,29.369897 123.79046,26.223963 123.78697,23.53753 C 123.78199,19.714096 122.96919,18.540046 120.04516,18.132796 C 117.99066,17.846646 116.30971,16.582812 116.30971,15.324245 C 116.30971,11.920145 124.70971,13.908395 140.38263,21.022129 C 163.16506,31.362864 181.49048,51.228864 189.61263,74.390824 C 195.1624,90.217124 194.96253,116.37997 189.16775,132.62721 C 178.6411,162.14159 154.28093,183.8794 122.61564,192.01503 C 107.54077,195.88818 94.714189,196.07902 79.282929,192.6597 z M 118.80001,190.36823 C 161.16361,180.33591 189.85438,147.61118 189.64067,109.5672 C 189.5222,88.475904 184.279,74.387584 171.08953,59.720804 C 162.44654,50.109803 153.11891,43.760882 141.21273,39.385048 C 136.19061,37.539282 130.72979,35.504548 129.07752,34.863465 C 126.44589,33.842314 126.13714,34.480998 126.58724,40.014715 L 127.10102,46.331649 L 120.07907,46.830666 C 114.90861,47.198116 111.74486,48.616633 108.08015,52.210584 C 103.11715,57.077784 98.069619,70.005554 98.023019,77.969034 C 97.977649,85.721904 94.326769,89.572554 82.275569,94.578174 L 70.654179,99.405244 L 61.272229,96.674644 C 44.355829,91.751154 31.026829,96.284024 20.909789,110.40089 C 16.426359,116.65689 15.868739,118.72946 15.878729,129.10054 C 15.888189,138.95072 16.650329,142.11364 20.779939,149.44158 C 26.169189,159.00464 41.076199,173.42263 52.161449,179.7936 C 65.181629,187.27663 77.844449,190.63711 95.557189,191.3101 C 104.6883,191.65701 115.14757,191.23316 118.80001,190.36823 z M 81.376149,184.86223 C 50.491249,179.45816 23.455039,155.95864 20.562039,132.00337 C 18.491389,114.85744 31.725159,100.1769 49.252029,100.1769 C 61.358429,100.1769 63.237149,102.46234 55.740399,108.06999 C 52.475729,110.512 48.519029,113.83085 46.947779,115.44517 C 45.376509,117.05949 42.490649,118.86179 40.534729,119.45032 C 38.578809,120.03882 36.578829,122.01929 36.090309,123.85132 C 35.471879,126.17052 35.868899,126.93139 37.397359,126.35617 C 39.042459,125.73709 39.418109,127.03091 38.896349,131.51906 C 38.355159,136.17427 39.131549,138.59587 42.382409,142.39253 C 45.458699,145.98523 46.566929,146.54888 46.572979,144.52379 C 46.577529,143.00956 45.834149,141.31781 44.921029,140.76439 C 42.134799,139.07564 43.063299,136.94927 46.826729,136.40019 C 50.807549,135.81937 54.632279,131.02169 52.657999,129.08552 C 51.955829,128.39689 50.715449,128.89004 49.901649,130.18141 C 49.087829,131.47276 47.949079,132.06556 47.371099,131.49874 C 46.793109,130.93192 48.620209,128.80047 51.431329,126.76227 C 54.242449,124.72406 56.542449,121.72887 56.542449,120.10631 C 56.542449,118.24162 57.764109,117.15619 59.862849,117.15619 C 61.689069,117.15619 63.235769,116.24036 63.299949,115.12102 C 63.364119,114.00165 64.058699,114.55114 64.843449,116.34212 C 66.063549,119.12659 66.287179,119.18557 66.386979,116.74914 C 66.451149,115.18206 67.330679,113.89989 68.341479,113.89989 C 69.352299,113.89989 69.734399,115.03694 69.190599,116.42667 C 68.623649,117.87561 68.901969,118.52914 69.843069,117.95874 C 70.745729,117.41166 71.484269,115.90826 71.484269,114.61787 C 71.484269,113.3275 72.231349,112.27174 73.144469,112.27174 C 75.265029,112.27174 75.235919,113.32375 73.001969,117.41729 C 71.408079,120.33804 71.600369,120.59579 74.662169,119.64276 C 77.788179,118.66977 78.125069,119.21429 78.125069,125.23952 C 78.125069,139.25676 70.388579,148.70421 57.338179,150.62343 C 43.165759,152.70769 29.979209,141.73643 29.979209,127.86066 C 29.979209,119.37832 33.503749,114.40967 42.217559,110.60777 C 47.575529,108.27002 48.238199,107.5922 45.253649,107.50232 C 32.617029,107.12164 23.304529,121.32604 26.649059,135.87991 C 28.650189,144.58801 38.693149,153.83571 47.784909,155.34209 C 69.735979,158.97911 87.898219,139.99054 83.166049,118.35122 C 81.748299,111.86805 81.815469,109.78255 83.476169,108.72217 C 88.269599,105.66152 91.895099,108.14182 94.614189,116.34212 C 97.844699,126.08472 106.36427,138.97744 118.03759,151.78888 C 130.14446,165.07616 127.13011,169.36506 109.83565,163.45891 C 102.57235,160.97844 93.066889,161.56969 93.066889,164.50193 C 93.066889,165.32626 95.725819,166.00071 98.975569,166.00071 C 102.49195,166.00071 104.46882,166.65991 103.8582,167.62886 C 103.29385,168.52435 100.28675,169.25701 97.175739,169.25701 C 91.153769,169.25701 79.785279,173.7833 79.785279,176.1809 C 79.785279,177.93596 86.063299,176.14071 90.530939,173.10808 C 92.332089,171.8855 94.946889,170.89766 96.341649,170.91293 C 97.736419,170.92821 95.142139,173.11373 90.576599,175.76963 C 86.011039,178.42551 83.396219,180.58506 84.765869,180.56861 C 86.135539,180.55215 89.123899,179.49161 91.406689,178.21183 C 93.689449,176.93208 96.677839,175.89216 98.047489,175.90088 C 99.417149,175.90963 97.175889,177.68221 93.066889,179.84 C 88.143889,182.42523 86.728389,183.76863 88.916389,183.7791 C 90.742599,183.78783 94.104519,182.7479 96.387289,181.46815 C 98.670069,180.18838 104.37844,179.11533 109.07255,179.08361 C 113.91056,179.05091 120.74204,177.63096 124.84447,175.80536 C 128.82491,174.03408 133.83252,172.56875 135.97249,172.54906 C 138.44834,172.52633 140.17916,171.32906 140.73168,169.25701 C 141.20924,167.46605 142.44671,165.98949 143.48161,165.97578 C 144.51649,165.96208 144.24259,165.24063 142.87293,164.37256 C 140.65933,162.96964 140.65933,162.79084 142.87293,162.76324 C 144.24259,162.74621 143.06241,161.35629 140.25033,159.67458 C 134.74511,156.38233 133.00801,152.99206 128.56996,136.87839 C 125.22302,124.72627 116.60342,114.52734 108.30435,112.89959 C 105.43205,112.3362 103.48752,111.23179 103.98312,110.44535 C 105.18517,108.53797 109.32689,108.62984 111.81424,110.61907 C 112.91707,111.50102 116.11287,114.01945 118.91599,116.21552 C 124.43834,120.54194 127.93652,127.40739 132.01504,141.92361 C 135.09866,152.89883 142.37758,159.52268 151.88256,160.00308 C 155.13706,160.16759 157.80319,160.82794 157.80729,161.47054 C 157.81826,163.19119 141.42618,174.89283 133.74182,178.6499 C 127.99057,181.46185 123.22006,182.72918 105.5184,186.1477 C 99.319519,187.34481 93.921919,187.05741 81.376149,184.86223 z M 134.10811,167.5643 C 134.59512,165.73779 135.36457,164.60719 135.81796,165.05184 C 136.71613,165.93266 135.12966,170.88515 133.94936,170.88515 C 133.54962,170.88515 133.62106,169.39076 134.10811,167.5643 z M 165.33958,158.92576 C 165.97373,153.26034 169.66896,148.31063 173.07643,148.56236 C 176.91783,148.84613 176.9176,148.84729 171.5114,156.34394 C 166.23988,163.65383 164.74011,164.28123 165.33958,158.92576 z M 103.0281,130.89937 C 103.0281,130.50449 103.7752,130.18141 104.6883,130.18141 C 105.6014,130.18141 106.3485,130.95731 106.3485,131.90564 C 106.3485,132.85397 105.6014,133.17707 104.6883,132.62362 C 103.7752,132.07021 103.0281,131.29427 103.0281,130.89937 z M 154.58961,100.06782 C 151.59393,92.700994 144.96764,84.897154 139.24303,81.993984 C 134.49112,79.584154 133.66637,79.613424 127.72652,82.402734 C 124.20756,84.055224 121.31986,85.774834 121.30936,86.224124 C 121.29889,86.673404 124.54797,88.735824 128.52956,90.807254 C 137.59313,95.522654 146.78318,104.65004 150.98254,113.10714 C 152.75531,116.67737 153.92959,119.87186 153.59206,120.20609 C 153.25454,120.54029 149.44896,117.76702 145.13523,114.0432 C 140.82151,110.31942 132.73299,105.13885 127.16077,102.5308 C 119.97857,99.169244 116.95541,96.825524 116.77519,94.479404 C 116.63541,92.659154 117.22329,90.744244 118.08164,90.223994 C 118.94001,89.703744 119.18544,87.492924 118.62706,85.311134 C 118.06867,83.129284 118.04899,80.226934 118.58329,78.861424 C 119.38236,76.819254 120.13421,76.733554 122.81997,78.378474 C 125.53514,80.041374 126.66017,79.867934 129.49846,77.348924 C 131.37576,75.682774 132.91172,72.601474 132.91172,70.501534 C 132.91172,68.401654 133.71819,66.683524 134.70382,66.683524 C 135.85601,66.683524 136.08317,68.573004 135.33999,71.975024 C 134.70421,74.885334 134.76112,76.725084 135.46644,76.063354 C 136.17176,75.401654 137.35678,72.104654 138.09976,68.736674 C 139.28606,63.359374 139.35709,63.605224 138.68274,70.753884 C 138.14876,76.414424 138.40943,78.150584 139.53833,76.452424 C 140.43128,75.109184 141.19604,71.445854 141.23779,68.311674 C 141.30079,63.581854 141.60631,63.106174 143.03501,65.513404 C 144.24146,67.546174 144.17873,70.130004 142.82519,74.152004 C 140.98624,79.616534 141.16559,80.148974 146.58359,85.309254 C 154.75253,93.089704 158.39734,101.58469 158.85056,113.89989 L 159.24003,124.48287 L 157.90646,114.71395 C 157.17303,109.34107 155.68043,102.7503 154.58961,100.06782 z M 111.40521,99.107094 C 112.42442,97.239454 113.66366,96.108844 114.15902,96.594654 C 115.52746,97.936674 113.33547,102.50284 111.32279,102.50284 C 110.09497,102.50284 110.12024,101.4617 111.40521,99.107094 z M 174.67961,70.094054 C 166.22248,57.294484 155.47173,49.593166 137.23964,43.273966 C 131.26124,41.201865 136.03302,40.315999 142.34664,42.325899 C 151.44281,45.221582 164.68136,54.192204 170.41248,61.343684 C 175.90481,68.197204 181.05756,75.876924 181.05756,77.209204 C 181.05756,79.200424 179.68403,77.668104 174.67961,70.094054 z M 86.141749,52.591884 C 84.471899,51.109864 83.105669,47.794733 83.105669,45.224916 C 83.105669,41.739149 82.051599,40.159499 78.955169,39.004965 C 74.632979,37.393381 74.274849,36.497348 74.725269,28.421964 C 75.018719,23.16123 80.031279,17.838996 84.692499,17.838996 C 86.276039,17.838996 88.924239,19.304729 90.577419,21.096179 L 93.583119,24.353347 L 95.909449,21.096179 C 98.550519,17.398329 105.98322,16.752812 109.98009,19.874179 C 113.38211,22.53103 114.97277,33.114248 112.44671,36.285265 C 111.37546,37.629998 109.00482,38.988832 107.1786,39.304865 C 104.73077,39.728465 103.98519,40.948599 104.34145,43.947866 C 105.39222,52.794264 93.000969,58.679564 86.141749,52.591884 z M 106.28815,31.749614 C 108.75279,28.83723 107.19042,25.979763 103.1334,25.979763 C 99.474569,25.979763 95.690219,30.069064 97.172449,32.421031 C 98.727369,34.888398 103.95792,34.503131 106.28815,31.749614 z M 90.425419,32.732231 C 90.906619,31.968664 90.333489,30.047214 89.151749,28.462314 C 86.716239,25.195847 79.785279,26.32308 79.785279,29.985681 C 79.785279,33.461881 88.541219,35.722065 90.425419,32.732231 z M 95.562249,27.59988 C 97.539549,24.462297 103.64145,22.997113 107.1786,24.810563 C 110.1487,26.33328 110.25862,26.227097 108.22047,23.804096 C 105.18654,20.197279 100.882,20.380446 97.293589,24.26903 C 94.392499,27.412797 94.321239,27.41113 89.742219,24.09108 C 86.116319,21.462079 84.454999,21.118113 82.037369,22.49598 C 79.320219,24.044546 79.529569,24.258463 83.805049,24.30208 C 86.472489,24.329313 89.946999,25.498347 91.526189,26.89988 C 93.565689,28.70998 94.734869,28.91273 95.562249,27.59988 z M 39.940429,34.216581 C 39.940429,33.373964 40.687509,32.231748 41.600649,31.678281 C 42.513749,31.124847 43.260849,31.814264 43.260849,33.210348 C 43.260849,34.606414 42.513749,35.748648 41.600649,35.748648 C 40.687509,35.748648 39.940429,35.059215 39.940429,34.216581 z M 68.821019,24.792563 C 70.508649,23.13753 71.901099,25.62923 70.516449,27.82643 C 69.470469,29.486197 69.079419,29.48748 68.517079,27.832997 C 68.132579,26.701763 68.269369,25.333563 68.821019,24.792563 z M 117.96991,24.351613 C 117.96991,23.456113 118.71701,22.723446 119.63011,22.723446 C 120.54322,22.723446 121.29032,23.456113 121.29032,24.351613 C 121.29032,25.24708 120.54322,25.979763 119.63011,25.979763 C 118.71701,25.979763 117.96991,25.24708 117.96991,24.351613 z M 94.727089,2.9934602 C 94.727089,2.0979772 95.474169,1.8181102 96.387289,2.3715602 C 97.300399,2.9249942 98.047489,4.1104942 98.047489,5.0059612 C 98.047489,5.9014442 97.300399,6.1813112 96.387289,5.6278772 C 95.474169,5.0744272 94.727089,3.8889442 94.727089,2.9934602 z M 89.534719,3.5926612 C 87.469639,1.0103272 87.528349,0.95274417 90.161539,2.9779442 C 91.759489,4.2069772 93.066889,5.4891442 93.066889,5.8272442 C 93.066889,7.1672612 91.703539,6.3047612 89.534719,3.5926612 z "
     id="path1308" />
</svg>
